<?xml version="1.0" encoding="UTF-8" standalone="no"?>
<svg
   height="128"
   viewBox="0 0 100 100"
   width="128"
   version="1.1"
   id="svg8"
   xmlns="http://www.w3.org/2000/svg"
   xmlns:svg="http://www.w3.org/2000/svg">
  <defs
     id="defs8" />
  <linearGradient
     id="a"
     gradientUnits="userSpaceOnUse"
     x1="31.25"
     x2="31.25"
     y1="100"
     y2="12.5">
    <stop
       offset="0"
       stop-color="#843600"
       id="stop1" />
    <stop
       offset=".14285715"
       stop-color="#f95"
       id="stop2" />
    <stop
       offset=".85714287"
       stop-color="#f95"
       id="stop3" />
    <stop
       offset="1"
       stop-color="#843600"
       id="stop4" />
  </linearGradient>
  <linearGradient
     id="b"
     gradientUnits="userSpaceOnUse"
     x1="25"
     x2="12.5"
     y1="50"
     y2="37.5">
    <stop
       offset="0"
       stop-color="#863900"
       id="stop5" />
    <stop
       offset="1"
       stop-color="#f95"
       id="stop6" />
  </linearGradient>
  <g
     fill="#e0e0e0"
     stroke-width="23.622"
     id="g8">
    <path
       d="m25 18.68a18.75 18.75 0 0 0 -18.75 18.75 18.75 18.75 0 0 0 18.75 18.75 18.75 18.75 0 0 0 18.75-18.75 18.75 18.75 0 0 0 -18.75-18.75zm0 12.63a6.25 6.18 0 0 1 6.25 6.19 6.25 6.18 0 0 1 -6.25 6.18 6.25 6.18 0 0 1 -6.25-6.18 6.25 6.18 0 0 1 6.25-6.19z"
       fill="url(#b)"
       id="path6" />
    <rect
       fill="#ff0000"
       height="49.506756"
       ry="24.753378"
       stroke-width="16.6667"
       width="59.192329"
       x="22.057673"
       y="37.993244"
       id="rect6" />
    <ellipse
       style="fill:#66ff00;fill-opacity:1;stroke:none;stroke-width:2.06744;stroke-linejoin:round"
       id="path10"
       cx="53.134392"
       cy="49.960278"
       rx="6.7745905"
       ry="7.0902419" />
    <ellipse
       style="fill:#66ff00;fill-opacity:1;stroke:none;stroke-width:2.82946;stroke-linejoin:round"
       id="path10-0"
       cx="53.406052"
       cy="45.850777"
       rx="12.648538"
       ry="7.1128049" />
    <path
       d="m43.9209 0-.1709 6.25h18.75l.061-6.25zm-.1709 12.5c0 34.57-31.25 37.5-31.25 50v18.75c0 6.25 11.1 18.75 12.5 18.75h56.25c1.48 0 12.5-12.5 12.5-18.75v-18.75c0-12.5-31.25-15.33-31.25-50zm18.75 31.25c-6.25 6.25-6.25 6.25-6.25 12.5 24.9257-12.4629 22.328 41.9596-3.125 25-25.4468 16.9736-28.0013-37.4382-3.125-25 0-2.7899 1.2512-5.5785 3.186-7.8125-2.3251.729-7.5249-.0464-9.436-1.8555 2.0556-1.9857 9.0667-4.1633 11.2549.0732 2.1765-1.7781 4.8387-2.9052 7.4951-2.9052z"
       fill="url(#a)"
       id="path7" />
    <path
       d="m37.5 6.25h31.25v6.25h-31.25z"
       fill="#f95"
       stroke-width="16.6667"
       id="path8" />
  </g>
</svg>
