<svg xmlns="http://www.w3.org/2000/svg" xmlns:xlink="http://www.w3.org/1999/xlink" width="120" height="45"><defs><linearGradient id="a"><stop offset="0" style="stop-color:#222034;stop-opacity:1"/><stop offset="1" style="stop-color:#45283c;stop-opacity:1"/></linearGradient><linearGradient xlink:href="#a" id="b" x1="55" x2="55" y1="40" y2="5" gradientUnits="userSpaceOnUse"/><filter id="c" width="1.087" height="1.274" x="-.044" y="-.137" style="color-interpolation-filters:sRGB"><feGaussianBlur result="blur" stdDeviation="2 2"/></filter></defs><path d="M22.5 0A22.5 22.5 0 0 0 0 22.5 22.5 22.5 0 0 0 22.5 45h75A22.5 22.5 0 0 0 120 22.5 22.5 22.5 0 0 0 97.5 0z" style="fill:#76428a;stroke-width:2.66667;stroke-linejoin:round;fill-opacity:1"/><path d="M25.625 5A20.625 17.5 0 0 0 5 22.5 20.625 17.5 0 0 0 25.625 40h68.75A20.625 17.5 0 0 0 115 22.5 20.625 17.5 0 0 0 94.375 5Z" style="fill:url(#b);stroke-width:2.25166;stroke-linejoin:round;filter:url(#c);fill-opacity:1"/></svg>